<?xml version="1.0" standalone="no"?>
<!DOCTYPE svg PUBLIC "-//W3C//DTD SVG 20010904//EN"
 "http://www.w3.org/TR/2001/REC-SVG-20010904/DTD/svg10.dtd">
<svg version="1.0" xmlns="http://www.w3.org/2000/svg"
 width="736.000000pt" height="736.000000pt" viewBox="0 0 736.000000 736.000000"
 preserveAspectRatio="xMidYMid meet">

<g transform="translate(0.000000,736.000000) scale(0.100000,-0.100000)"
fill="#000000" stroke="none">
<path d="M3475 5889 c-102 -8 -205 -27 -220 -40 -5 -5 -20 -9 -35 -9 -14 0
-34 -7 -44 -15 -11 -8 -28 -15 -39 -15 -10 0 -31 -6 -45 -14 -15 -7 -45 -22
-67 -31 -22 -10 -47 -22 -55 -26 -8 -5 -35 -19 -60 -31 -25 -13 -49 -27 -55
-31 -5 -5 -35 -25 -67 -45 -31 -20 -89 -64 -129 -96 -108 -88 -299 -282 -299
-304 0 -5 -10 -17 -21 -28 -32 -28 -125 -173 -152 -236 -6 -16 -15 -28 -19
-28 -4 0 -8 -9 -8 -19 0 -11 -7 -26 -15 -35 -8 -8 -15 -23 -15 -34 0 -11 -7
-25 -15 -32 -8 -7 -15 -22 -15 -34 0 -12 -7 -31 -15 -42 -8 -10 -15 -30 -15
-44 0 -14 -7 -34 -15 -44 -8 -11 -15 -34 -15 -50 0 -17 -7 -40 -15 -50 -8 -11
-15 -34 -15 -51 0 -17 -7 -40 -15 -51 -8 -10 -15 -32 -15 -47 0 -33 -19 -65
-78 -132 -55 -62 -122 -161 -122 -181 0 -8 -3 -14 -7 -14 -10 0 -70 -125 -79
-163 -3 -15 -10 -30 -15 -33 -5 -3 -9 -18 -9 -33 0 -15 -7 -36 -15 -47 -8 -10
-15 -37 -15 -59 0 -22 -7 -51 -16 -64 -25 -35 -25 -437 0 -472 9 -13 16 -36
16 -51 0 -16 4 -36 9 -46 6 -9 24 -48 42 -87 34 -74 126 -197 159 -215 18 -9
20 -22 20 -98 1 -56 6 -96 15 -112 8 -14 14 -41 15 -60 0 -20 4 -40 9 -45 5
-6 16 -37 26 -70 9 -33 23 -72 31 -87 8 -14 14 -33 14 -41 0 -8 7 -20 15 -27
8 -7 15 -20 15 -30 0 -10 7 -23 15 -30 8 -7 15 -18 15 -26 0 -16 75 -127 145
-214 53 -66 122 -137 184 -187 64 -52 71 -62 71 -102 0 -22 6 -44 15 -51 8 -7
15 -18 15 -24 0 -21 160 -166 184 -166 7 0 19 -7 26 -15 7 -8 20 -15 30 -15
10 0 23 -7 30 -15 7 -8 22 -15 34 -15 12 0 31 -7 42 -15 10 -8 35 -15 55 -15
19 0 44 -7 55 -15 28 -21 290 -21 318 0 11 8 27 15 36 15 22 0 73 56 99 107
l20 41 193 6 c106 3 256 9 333 14 l140 8 35 -33 c19 -18 40 -33 47 -33 7 0 13
-4 13 -10 0 -5 8 -10 18 -10 10 0 27 -7 38 -15 10 -8 29 -15 42 -15 12 0 33
-7 46 -15 20 -13 55 -15 212 -13 190 4 203 6 294 48 84 38 158 102 221 190 45
61 89 167 89 211 0 35 7 49 43 88 85 94 149 181 162 220 3 11 11 21 16 21 5 0
9 8 9 19 0 10 7 24 15 31 8 7 15 20 15 29 0 9 7 25 15 35 8 11 15 30 15 42 0
13 4 25 9 28 5 4 12 24 16 46 4 22 11 42 16 46 5 3 9 24 9 48 0 24 7 65 15 92
8 27 15 88 15 137 0 63 3 87 13 87 7 0 17 -8 23 -18 6 -10 36 -37 67 -60 66
-51 163 -81 203 -63 14 6 33 11 42 11 10 0 25 8 34 18 9 9 30 30 47 46 17 16
33 37 36 47 4 11 11 19 16 19 5 0 9 17 9 38 1 20 7 48 15 62 19 33 19 146 0
200 -8 23 -15 63 -15 89 0 25 -7 55 -15 65 -8 11 -15 32 -15 47 0 15 -7 41
-15 58 -8 17 -22 45 -30 62 -8 17 -15 36 -15 42 0 9 -70 152 -104 212 -68 121
-149 247 -183 285 -13 14 -23 29 -23 35 0 6 -18 29 -40 53 l-41 43 -5 101 c-3
58 -11 113 -20 129 -8 15 -14 41 -14 58 0 16 -4 33 -10 36 -5 3 -10 16 -10 28
0 20 -30 108 -51 149 -5 10 -9 25 -9 34 0 9 -6 28 -13 42 -8 15 -21 42 -30 60
-9 19 -17 39 -17 47 0 7 -7 18 -15 25 -8 7 -15 20 -15 30 0 10 -7 23 -15 30
-8 7 -15 20 -15 30 0 10 -7 23 -15 30 -8 7 -15 21 -15 31 0 11 -4 19 -9 19 -5
0 -13 10 -17 22 -6 21 -62 118 -74 128 -3 3 -27 39 -54 80 -45 69 -244 280
-264 280 -5 0 -24 14 -43 31 -19 16 -44 36 -56 42 -12 7 -52 33 -90 58 -81 54
-139 89 -210 124 -29 15 -55 30 -58 36 -4 5 -17 9 -29 9 -13 0 -29 7 -36 15
-7 8 -23 15 -35 15 -12 0 -28 7 -35 15 -7 8 -24 15 -39 15 -15 0 -31 4 -37 10
-5 5 -39 14 -74 20 -36 5 -85 14 -110 19 -51 11 -348 11 -485 0z m431 -124
c11 -8 42 -15 74 -15 32 0 63 -7 74 -15 11 -8 34 -15 50 -15 17 0 40 -7 50
-15 11 -8 37 -15 58 -15 21 0 46 -4 56 -10 31 -17 111 -50 121 -50 6 0 11 -4
11 -10 0 -5 6 -10 13 -10 7 0 43 -20 80 -44 36 -24 72 -46 79 -49 7 -3 60 -45
118 -94 97 -83 200 -195 246 -268 10 -16 21 -32 24 -35 7 -7 28 -40 40 -65 6
-11 19 -33 30 -50 22 -34 129 -249 154 -309 9 -21 16 -46 16 -56 0 -10 7 -23
15 -30 8 -7 15 -24 15 -39 1 -14 7 -37 15 -51 8 -14 15 -36 15 -50 0 -14 7
-34 15 -44 8 -11 15 -29 15 -41 0 -12 7 -30 15 -41 8 -10 15 -31 15 -45 0 -15
7 -40 15 -55 8 -16 15 -41 15 -55 0 -15 7 -43 15 -62 8 -20 15 -50 15 -66 0
-19 7 -34 19 -40 10 -6 50 -57 87 -113 38 -57 75 -107 82 -111 6 -4 12 -12 12
-18 0 -5 12 -28 27 -52 39 -61 61 -98 78 -132 9 -16 19 -37 24 -45 5 -8 12
-22 15 -30 3 -8 10 -22 14 -30 22 -39 35 -66 42 -89 5 -14 18 -51 30 -81 12
-30 23 -67 25 -82 2 -15 9 -37 15 -49 7 -11 14 -85 16 -164 3 -118 2 -144 -11
-155 -8 -7 -15 -17 -15 -23 0 -6 -10 -21 -22 -34 -31 -33 -92 -31 -138 5 -70
54 -150 153 -206 257 -21 38 -24 40 -77 43 -60 3 -74 -9 -58 -51 22 -58 19
-514 -4 -561 -8 -16 -15 -39 -15 -52 0 -22 -6 -38 -47 -134 -54 -124 -145
-260 -223 -333 -60 -56 -183 -147 -199 -147 -5 0 -14 -7 -21 -15 -7 -8 -22
-15 -34 -15 -11 0 -30 -7 -40 -15 -11 -8 -29 -15 -41 -15 -12 0 -25 -3 -29 -7
-7 -8 -77 -25 -168 -43 -26 -5 -56 -13 -67 -19 -11 -6 -35 -11 -54 -11 -19 0
-54 -7 -77 -15 -23 -8 -59 -15 -80 -15 -21 0 -57 -7 -80 -15 -23 -8 -68 -15
-99 -15 -31 0 -78 -7 -105 -15 -39 -12 -110 -15 -340 -15 -160 1 -336 6 -391
11 -55 6 -125 13 -155 15 -30 3 -69 12 -87 20 -17 8 -40 14 -51 14 -11 0 -36
7 -55 15 -20 8 -46 15 -57 15 -11 0 -43 11 -70 24 -28 14 -64 28 -80 31 -17 4
-30 11 -30 16 0 5 -11 9 -24 9 -13 0 -29 7 -36 15 -7 8 -19 15 -27 15 -7 0
-16 7 -19 15 -4 8 -15 15 -26 15 -34 0 -247 223 -301 315 -26 44 -52 87 -57
95 -6 8 -15 26 -21 40 -5 13 -21 46 -35 73 -13 27 -24 56 -24 66 0 9 -5 22
-11 28 -6 6 -15 29 -20 50 -24 110 -38 170 -44 189 -8 27 8 39 25 19 10 -12
38 -15 129 -15 131 0 146 5 218 80 35 37 44 42 57 31 9 -7 54 -16 101 -19 85
-5 85 -5 178 -68 94 -64 196 -119 277 -148 58 -20 178 -21 204 -1 11 8 37 15
57 15 21 0 40 4 43 9 3 5 18 12 33 15 30 7 129 56 178 87 17 10 37 22 45 26
32 14 128 94 181 149 110 118 159 209 159 298 -1 84 -15 98 -115 116 -99 19
-594 20 -730 2 -77 -10 -533 -18 -590 -10 -14 2 -25 -9 -41 -42 -13 -25 -23
-53 -23 -63 -1 -9 -5 -25 -10 -35 -13 -27 -41 -118 -41 -136 0 -15 -17 -59
-48 -124 -9 -19 -28 -40 -43 -48 -36 -18 -129 -18 -165 1 -16 8 -36 15 -44 15
-53 2 -193 146 -229 236 -12 33 -27 68 -32 79 -37 81 -47 383 -17 505 35 141
39 155 49 165 5 5 9 16 9 26 0 22 85 193 124 249 17 24 47 62 66 83 59 65 99
130 100 162 0 17 7 39 15 49 8 11 15 32 15 47 0 15 7 40 15 55 8 16 15 37 15
46 0 9 6 29 14 45 8 15 22 46 31 68 9 22 20 48 25 57 6 10 10 25 10 34 0 9 6
28 13 42 8 15 22 45 32 67 9 22 21 47 26 55 5 8 13 24 18 35 5 11 20 36 32 55
13 19 30 47 37 61 24 47 352 371 394 389 13 6 37 19 53 30 17 11 38 23 48 26
9 4 17 10 17 14 0 9 4 12 175 99 66 33 129 61 141 61 11 0 29 7 40 15 10 8 33
15 50 15 17 0 48 7 67 15 20 8 67 15 104 15 37 1 91 7 118 15 71 19 275 20
301 0z m-278 -2602 l113 -6 -6 -26 c-8 -34 -37 -91 -47 -91 -5 0 -8 -6 -8 -13
0 -18 -128 -147 -146 -147 -3 0 -23 -12 -43 -27 -45 -35 -70 -50 -98 -62 -11
-6 -24 -15 -28 -20 -3 -6 -15 -11 -25 -11 -10 0 -31 -6 -47 -14 -79 -41 -102
-46 -206 -46 -81 0 -109 4 -121 15 -8 8 -21 15 -28 15 -8 0 -23 7 -33 15 -11
8 -66 44 -122 81 -56 36 -103 70 -105 77 -2 7 -1 62 2 122 l5 110 45 8 c96 16
721 31 898 20z m-1077 -128 l2 -90 -44 0 c-38 0 -44 3 -42 20 8 81 55 187 74
168 4 -4 9 -48 10 -98z m2369 -1324 c0 -14 -108 -91 -128 -91 -11 0 -25 -7
-32 -15 -7 -8 -27 -15 -45 -15 -20 0 -35 -6 -39 -15 -4 -12 -32 -15 -166 -15
-89 0 -159 4 -156 9 3 4 32 9 65 10 33 0 72 6 86 11 15 6 48 10 74 10 31 0 53
5 61 15 7 9 29 15 55 15 26 0 48 6 55 15 7 8 24 15 39 16 14 0 49 13 76 29 59
34 55 32 55 21z m-2260 -96 c7 -8 25 -15 40 -15 16 0 30 -7 34 -15 3 -10 19
-15 43 -15 21 0 47 -7 57 -15 14 -10 45 -15 102 -15 46 0 85 -4 88 -9 3 -5 55
-12 116 -16 119 -8 133 -17 78 -49 -25 -15 -50 -19 -120 -18 -48 1 -95 6 -105
11 -10 6 -39 13 -65 16 -26 3 -50 10 -53 16 -4 5 -13 9 -21 9 -24 0 -200 89
-219 110 -15 17 -16 20 -3 20 9 0 21 -7 28 -15z"/>
<path d="M4545 4713 c-43 -7 -79 -36 -100 -83 -14 -32 -16 -45 -7 -63 6 -12
14 -32 17 -44 3 -12 20 -34 38 -49 27 -23 37 -26 79 -21 88 11 141 86 118 166
-10 37 -76 102 -100 99 -8 0 -28 -3 -45 -5z"/>
<path d="M2950 4610 c-44 -45 -50 -56 -50 -93 0 -33 7 -50 33 -80 31 -38 33
-38 101 -38 64 0 72 2 100 31 27 27 31 37 30 84 -2 65 -30 108 -86 131 -59 23
-73 19 -128 -35z"/>
<path d="M3635 4478 c-22 -5 -60 -12 -85 -17 -25 -4 -55 -13 -67 -19 -12 -7
-33 -12 -46 -12 -14 0 -30 -7 -37 -15 -7 -8 -25 -15 -41 -15 -16 0 -29 -4 -29
-9 0 -5 -10 -13 -22 -17 -12 -3 -42 -25 -66 -48 -74 -69 -101 -145 -67 -190 8
-11 15 -26 15 -34 0 -36 163 -162 209 -162 7 0 22 -6 34 -12 50 -28 157 -40
391 -45 197 -3 246 -1 284 11 25 9 62 16 81 16 20 0 45 7 55 15 11 8 30 15 41
15 27 0 106 41 156 81 46 36 77 101 73 154 -1 22 -3 45 -3 51 -1 17 -81 104
-105 115 -12 5 -41 21 -65 34 -24 14 -50 25 -57 25 -7 0 -25 6 -41 14 -56 28
-94 38 -230 65 -61 12 -325 12 -378 -1z m409 -133 c11 -8 36 -15 57 -15 20 0
42 -7 49 -15 7 -8 23 -15 36 -15 14 0 32 -4 42 -9 9 -5 33 -15 52 -22 44 -17
110 -76 110 -98 0 -21 -57 -76 -87 -86 -13 -3 -23 -11 -23 -16 0 -5 -18 -9
-41 -9 -23 0 -47 -7 -55 -15 -9 -8 -33 -15 -55 -15 -22 0 -50 -5 -62 -12 -33
-18 -428 -20 -487 -2 -25 8 -59 14 -76 14 -17 0 -37 7 -44 15 -7 8 -23 15 -35
15 -12 0 -28 7 -35 15 -7 8 -16 15 -21 15 -13 0 -59 46 -59 59 0 6 -4 11 -10
11 -5 0 -10 12 -10 27 0 28 25 63 46 63 7 0 14 3 16 8 6 13 69 42 92 42 12 0
31 7 42 15 10 8 37 15 59 15 22 0 49 7 59 15 29 22 412 21 440 0z"/>
<path d="M4230 4110 c0 -5 5 -10 11 -10 5 0 7 5 4 10 -3 6 -8 10 -11 10 -2 0
-4 -4 -4 -10z"/>
</g>
</svg>
